#!OML:ASF X:\für Bonn\!DataBase\2005_08_10_Bjorn_Final\c3d\bjorn.ASF
:FULLY-SPECIFIED
:DEGREES
526
root -0.518327 1.25211 23.9283 -469.632 -178.054 371.079
lowerback 23.8499 0.99573 -2.27056
upperback 9.62424 -0.89408 -3.58405
thorax -2.74802 -1.19082 -2.30351
lowerneck -10.0582 -7.6448 -3.10296
upperneck 2.3462 -10.7946 7.90477
head 3.22432 -5.33182 2.46821
rclavicle -4.77083e-015 1.78906e-014
rhumerus -180.236 -180.143 128.349
rradius 88.3253
rwrist -7.65066
rhand -30.8031 20.0156
rfingers 7.12502
rthumb -4.09296 -9.92485
lclavicle -4.77083e-015 1.78906e-014
lhumerus -367.196 -32.8039 -299.819
lradius 29.6039
lwrist -37.5226
lhand -20.9384 -16.5088
lfingers 7.12502
lthumb 5.43386 13.4015
rfemur -25.3621 -18.2194 -15.2954
rtibia 109.692
rfoot 38.4893 14.4453
rtoes 3.24753
lfemur -40.5952 4.70389 -1.67265
ltibia 119.553
lfoot 34.419 6.25391
ltoes 19.2699
527
root -0.513839 1.25196 23.9297 -469.664 -178.023 371.018
lowerback 23.8897 0.991975 -2.21321
upperback 9.52282 -0.879067 -3.61098
thorax -2.87884 -1.17238 -2.36784
lowerneck -10.3467 -7.71877 -3.17976
upperneck 2.40776 -10.9255 8.16387
head 3.33408 -5.38929 2.54714
rclavicle -4.77083e-015 -6.4605e-014
rhumerus -181.218 -180.078 128.76
rradius 89.2712
rwrist -8.08315
rhand -31.18 19.9592
rfingers 7.12502
rthumb -4.45694 -9.97389
lclavicle -4.77083e-015 -6.4605e-014
lhumerus -367.271 -33.278 -300.298
lradius 30.1869
lwrist -37.0439
lhand -21.3119 -16.3251
lfingers 7.12502
lthumb 5.07324 13.5941
rfemur -25.3599 -18.0954 -15.1916
rtibia 109.662
rfoot 38.4061 14.3365
rtoes 3.1219
lfemur -40.7926 4.52894 -1.51689
ltibia 119.858
lfoot 34.5996 5.67533
ltoes 18.8055
528
root -0.509901 1.25146 23.9288 -469.648 -177.983 370.943
lowerback 23.8779 0.985671 -2.16541
upperback 9.41296 -0.8641 -3.64153
thorax -2.99354 -1.15251 -2.43093
lowerneck -10.5574 -7.76943 -3.23164
upperneck 2.38014 -11.0226 8.40768
head 3.39368 -5.43335 2.62326
rclavicle -2.8625e-014 -2.84262e-014
rhumerus -182.198 -180 129.137
rradius 90.1814
rwrist -8.51333
rhand -31.5393 19.9889
rfingers 7.12502
rthumb -4.80389 -9.9366
lclavicle -2.8625e-014 -2.84262e-014
lhumerus -367.37 -33.7218 -300.763
lradius 30.798
lwrist -36.6028
lhand -21.6085 -16.1132
lfingers 7.12502
lthumb 4.78676 13.8127
rfemur -25.4165 -17.991 -15.086
rtibia 109.643
rfoot 38.3784 14.1958
rtoes 3.32515
lfemur -41.0322 4.40565 -1.35511
ltibia 120.161
lfoot 34.8211 4.93733
ltoes 18.0429
529
root -0.505759 1.2508 23.9288 -469.664 -177.947 370.871
lowerback 23.8892 0.993357 -2.08492
upperback 9.33582 -0.83231 -3.68467
thorax -3.08353 -1.1282 -2.53107
lowerneck -10.7155 -7.82508 -3.23329
upperneck 2.25459 -11.1268 8.61893
head 3.40355 -5.48536 2.68195
rclavicle 7.95139e-015 -2.127e-014
rhumerus -183.213 -179.851 129.504
rradius 91.0762
rwrist -8.83441
rhand -32.0345 19.9438
rfingers 7.12502
rthumb -5.28202 -9.97037
lclavicle 7.95139e-015 -2.127e-014
lhumerus -367.384 -34.2269 -301.271
lradius 31.3735
lwrist -36.072
lhand -21.899 -15.8855
lfingers 7.12502
lthumb 4.50628 14.0466
rfemur -25.4386 -17.8663 -14.9865
rtibia 109.621
rfoot 38.316 14.073
rtoes 3.32364
lfemur -41.2185 4.24344 -1.19864
ltibia 120.427
lfoot 35.0579 4.19375
ltoes 17.4608
530
root -0.501528 1.2507 23.9288 -469.669 -177.932 370.803
lowerback 23.9022 0.982266 -2.0042
upperback 9.23351 -0.819499 -3.71489
thorax -3.20228 -1.11044 -2.61236
lowerneck -10.8305 -7.86817 -3.21205
upperneck 2.16136 -11.2107 8.77134
head 3.40901 -5.52759 2.71954
rclavicle -1.59028e-014 5.32743e-014
rhumerus -184.196 -179.759 129.833
rradius 91.7735
rwrist -8.83912
rhand -32.7215 19.9754
rfingers 7.12502
rthumb -5.9453 -9.9212
lclavicle -1.59028e-014 5.32743e-014
lhumerus -367.501 -34.747 -301.718
lradius 31.9785
lwrist -35.4621
lhand -22.0891 -15.6173
lfingers 7.12502
lthumb 4.32271 14.3186
rfemur -25.4694 -17.7547 -14.8539
rtibia 109.598
rfoot 38.2414 14.0179
rtoes 3.26134
lfemur -41.4043 4.05567 -1.03217
ltibia 120.663
lfoot 35.3148 3.31272
ltoes 16.6044
531
root -0.498334 1.24997 23.9271 -469.673 -177.9 370.745
lowerback 23.9066 0.981052 -1.90409
upperback 9.15634 -0.794671 -3.76619
thorax -3.28907 -1.08933 -2.73113
lowerneck -10.9508 -7.90261 -3.11735
upperneck 2.02464 -11.2869 8.87619
head 3.39046 -5.56797 2.72879
rclavicle 4.45278e-014 5.56597e-015
rhumerus -185.178 -179.595 130.135
rradius 92.3621
rwrist -8.62661
rhand -33.4711 19.9889
rfingers 7.12502
rthumb -6.66904 -9.88608
lclavicle 4.45278e-014 5.56597e-015
lhumerus -367.527 -35.2645 -302.202
lradius 32.553
lwrist -34.8338
lhand -22.2555 -15.4421
lfingers 7.12502
lthumb 4.16208 14.497
rfemur -25.4936 -17.6549 -14.7654
rtibia 109.578
rfoot 38.1785 13.9645
rtoes 3.16984
lfemur -41.5669 3.85798 -0.895496
ltibia 120.862
lfoot 35.6099 2.4535
ltoes 15.9095
532
root -0.494492 1.24948 23.9255 -469.679 -177.88 370.665
lowerback 23.9063 0.984164 -1.83752
upperback 9.09266 -0.769384 -3.77729
thorax -3.35809 -1.06996 -2.78743
lowerneck -11.185 -7.93508 -2.99446
upperneck 2.16538 -11.3695 9.12329
head 3.15173 -5.58252 2.49843
rclavicle 3.65764e-014 2.62396e-014
rhumerus -186.1 -179.462 130.457
rradius 92.9229
rwrist -8.55909
rhand -33.9495 19.9557
rfingers 7.12502
rthumb -7.13082 -9.90417
lclavicle 3.65764e-014 2.62396e-014
lhumerus -367.604 -35.7096 -302.606
lradius 33.1181
lwrist -34.1823
lhand -22.5241 -15.3721
lfingers 7.12502
lthumb 3.90267 14.5719
rfemur -25.5374 -17.5351 -14.6418
rtibia 109.561
rfoot 38.1117 13.9178
rtoes 3.14241
lfemur -41.6988 3.6835 -0.736916
ltibia 121.025
lfoot 35.9035 1.47344
ltoes 14.9935
